<svg width="25" height="24" viewBox="0 0 25 24" fill="none" xmlns="http://www.w3.org/2000/svg">
<path fill-rule="evenodd" clip-rule="evenodd" d="M15.5947 16.4926C12.0132 19.3611 6.77062 19.1353 3.45058 15.8153C-0.111701 12.253 -0.111701 6.4774 3.45058 2.91512C7.01286 -0.647162 12.7885 -0.647162 16.3507 2.91512C19.6708 6.23516 19.8966 11.4777 17.0281 15.0592L23.9953 22.0264C24.3911 22.4222 24.3911 23.064 23.9953 23.4598C23.5995 23.8556 22.9577 23.8556 22.5619 23.4598L15.5947 16.4926ZM4.88393 14.3819C2.11327 11.6113 2.11327 7.11913 4.88393 4.34847C7.65459 1.57781 12.1467 1.57781 14.9174 4.34847C17.686 7.1171 17.6881 11.6047 14.9235 14.3758C14.9214 14.3778 14.9194 14.3799 14.9174 14.3819C14.9153 14.3839 14.9133 14.386 14.9113 14.388C12.1401 17.1526 7.65256 17.1506 4.88393 14.3819Z" fill="#191919"/>
</svg>
