<svg width="425" height="598" viewBox="0 0 425 598" fill="none" xmlns="http://www.w3.org/2000/svg">
<rect opacity="0.42" x="0.47998" y="0.273682" width="424" height="597" fill="#C4C4C4"/>
<circle cx="212.48" cy="298.774" r="155.925" stroke="#999999" stroke-width="25"/>
<line x1="332.688" y1="196.243" x2="109.949" y2="418.982" stroke="#999999" stroke-width="25"/>
<path d="M137.396 283.803V315.483H128.228L118.388 298.347L115.988 293.643H115.94L116.132 299.499V315.483H108.836V283.803H118.004L127.844 300.939L130.244 305.643H130.292L130.1 299.787V283.803H137.396ZM154.162 291.003C156.69 291.003 158.898 291.499 160.786 292.491C162.706 293.451 164.194 294.875 165.25 296.763C166.338 298.619 166.882 300.859 166.882 303.483C166.882 306.107 166.338 308.363 165.25 310.251C164.194 312.107 162.706 313.531 160.786 314.523C158.898 315.483 156.69 315.963 154.162 315.963C151.698 315.963 149.506 315.483 147.586 314.523C145.666 313.531 144.162 312.107 143.074 310.251C142.018 308.363 141.49 306.107 141.49 303.483C141.49 300.859 142.018 298.619 143.074 296.763C144.162 294.875 145.666 293.451 147.586 292.491C149.506 291.499 151.698 291.003 154.162 291.003ZM154.162 296.811C153.234 296.811 152.434 297.035 151.762 297.483C151.09 297.931 150.578 298.651 150.226 299.643C149.874 300.635 149.698 301.915 149.698 303.483C149.698 305.051 149.874 306.331 150.226 307.323C150.578 308.283 151.09 309.003 151.762 309.483C152.434 309.931 153.234 310.155 154.162 310.155C155.122 310.155 155.938 309.931 156.61 309.483C157.282 309.003 157.794 308.283 158.146 307.323C158.498 306.331 158.674 305.051 158.674 303.483C158.674 301.915 158.498 300.635 158.146 299.643C157.794 298.651 157.282 297.931 156.61 297.483C155.938 297.035 155.122 296.811 154.162 296.811ZM192.118 283.803V315.483H183.862V283.803H192.118ZM197.514 315.483V291.483H204.81L205.05 296.139C205.818 294.443 206.89 293.163 208.266 292.299C209.674 291.435 211.29 291.003 213.114 291.003C214.906 291.003 216.458 291.403 217.77 292.203C219.082 293.003 220.058 294.187 220.698 295.755C221.21 294.699 221.866 293.819 222.666 293.115C223.498 292.411 224.442 291.883 225.498 291.531C226.554 291.179 227.642 291.003 228.762 291.003C230.362 291.003 231.77 291.323 232.986 291.963C234.202 292.571 235.162 293.515 235.866 294.795C236.602 296.043 236.97 297.611 236.97 299.499V315.483H228.81V301.371C228.81 299.835 228.506 298.763 227.898 298.155C227.322 297.547 226.538 297.243 225.546 297.243C224.746 297.243 224.01 297.451 223.338 297.867C222.698 298.251 222.202 298.843 221.85 299.643C221.498 300.443 221.322 301.451 221.322 302.667V315.483H213.162V301.371C213.162 299.835 212.858 298.763 212.25 298.155C211.642 297.547 210.858 297.243 209.898 297.243C209.162 297.243 208.458 297.435 207.786 297.819C207.146 298.203 206.634 298.811 206.25 299.643C205.866 300.443 205.674 301.499 205.674 302.811V315.483H197.514ZM255.133 300.267C255.133 299.147 254.813 298.267 254.173 297.627C253.565 296.955 252.733 296.619 251.677 296.619C250.621 296.619 249.709 296.891 248.941 297.435C248.205 297.947 247.693 298.875 247.405 300.219L240.493 298.587C240.941 296.283 242.125 294.443 244.045 293.067C245.965 291.691 248.669 291.003 252.157 291.003C254.493 291.003 256.477 291.355 258.109 292.059C259.773 292.731 261.037 293.755 261.901 295.131C262.797 296.475 263.245 298.139 263.245 300.123V308.907C263.245 310.155 263.805 310.779 264.925 310.779C265.501 310.779 265.965 310.715 266.317 310.587L265.837 315.243C264.877 315.691 263.709 315.915 262.333 315.915C261.085 315.915 259.981 315.723 259.021 315.339C258.061 314.923 257.309 314.315 256.765 313.515C256.221 312.683 255.949 311.643 255.949 310.395V310.107L256.861 309.771C256.861 311.147 256.445 312.299 255.613 313.227C254.813 314.155 253.757 314.843 252.445 315.291C251.165 315.739 249.821 315.963 248.413 315.963C246.781 315.963 245.357 315.707 244.141 315.195C242.925 314.683 241.981 313.947 241.309 312.987C240.669 311.995 240.349 310.779 240.349 309.339C240.349 307.611 240.861 306.187 241.885 305.067C242.941 303.915 244.589 303.115 246.829 302.667L255.901 300.795L255.853 305.115L251.245 306.075C250.285 306.267 249.565 306.555 249.085 306.939C248.637 307.291 248.413 307.835 248.413 308.571C248.413 309.275 248.669 309.803 249.181 310.155C249.693 310.507 250.301 310.683 251.005 310.683C251.549 310.683 252.061 310.603 252.541 310.443C253.053 310.283 253.501 310.043 253.885 309.723C254.269 309.371 254.573 308.939 254.797 308.427C255.021 307.915 255.133 307.307 255.133 306.603V300.267ZM292.092 285.051L292.764 290.523C292.572 290.459 292.38 290.427 292.188 290.427C291.996 290.395 291.804 290.379 291.612 290.379C290.204 290.379 289.148 290.731 288.444 291.435C287.772 292.107 287.436 292.955 287.436 293.979L284.556 292.923C284.556 291.611 284.796 290.347 285.276 289.131C285.756 287.915 286.492 286.923 287.484 286.155C288.508 285.387 289.788 285.003 291.324 285.003C291.42 285.003 291.532 285.003 291.66 285.003C291.82 285.003 291.964 285.019 292.092 285.051ZM283.836 310.155C286.62 310.155 288.748 310.747 290.22 311.931C291.724 313.083 292.476 314.747 292.476 316.923C292.476 318.907 291.932 320.555 290.844 321.867C289.756 323.179 288.22 324.155 286.236 324.795C284.284 325.467 281.964 325.803 279.276 325.803C274.924 325.803 271.788 325.259 269.868 324.171C267.948 323.083 266.988 321.611 266.988 319.755C266.988 318.411 267.532 317.323 268.62 316.491C269.708 315.659 271.516 315.211 274.044 315.147L273.852 315.915C271.9 315.659 270.444 315.083 269.484 314.187C268.524 313.291 268.044 312.075 268.044 310.539C268.044 309.003 268.652 307.755 269.868 306.795C271.084 305.835 272.7 305.307 274.716 305.211L277.692 306.603H276.924C275.676 306.667 274.796 306.875 274.284 307.227C273.772 307.579 273.516 308.011 273.516 308.523C273.516 309.067 273.74 309.483 274.188 309.771C274.636 310.027 275.308 310.155 276.204 310.155H283.836ZM279.324 320.523C280.86 320.523 282.124 320.411 283.116 320.187C284.14 319.995 284.908 319.707 285.42 319.323C285.932 318.971 286.188 318.555 286.188 318.075C286.188 317.595 286.012 317.211 285.66 316.923C285.308 316.667 284.668 316.539 283.74 316.539H275.148C274.54 316.539 274.044 316.699 273.66 317.019C273.308 317.339 273.132 317.739 273.132 318.219C273.132 318.955 273.676 319.515 274.764 319.899C275.852 320.315 277.372 320.523 279.324 320.523ZM279.612 291.003C282.044 291.003 284.124 291.323 285.852 291.963C287.58 292.603 288.892 293.531 289.788 294.747C290.716 295.931 291.18 297.403 291.18 299.163C291.18 300.891 290.716 302.363 289.788 303.579C288.892 304.795 287.58 305.723 285.852 306.363C284.124 306.971 282.044 307.275 279.612 307.275C275.804 307.275 272.908 306.571 270.924 305.163C268.972 303.755 267.996 301.755 267.996 299.163C267.996 297.403 268.444 295.931 269.34 294.747C270.268 293.531 271.596 292.603 273.324 291.963C275.052 291.323 277.148 291.003 279.612 291.003ZM279.612 295.659C278.556 295.659 277.692 295.963 277.02 296.571C276.38 297.179 276.06 298.043 276.06 299.163C276.06 300.251 276.38 301.099 277.02 301.707C277.692 302.315 278.556 302.619 279.612 302.619C280.636 302.619 281.484 302.315 282.156 301.707C282.828 301.099 283.164 300.251 283.164 299.163C283.164 298.043 282.828 297.179 282.156 296.571C281.484 295.963 280.636 295.659 279.612 295.659ZM306.471 315.963C303.815 315.963 301.511 315.467 299.559 314.475C297.639 313.483 296.151 312.059 295.095 310.203C294.039 308.347 293.511 306.107 293.511 303.483C293.511 300.859 294.039 298.619 295.095 296.763C296.151 294.907 297.623 293.483 299.511 292.491C301.431 291.499 303.623 291.003 306.087 291.003C308.615 291.003 310.759 291.499 312.519 292.491C314.311 293.451 315.671 294.795 316.599 296.523C317.527 298.219 317.991 300.171 317.991 302.379C317.991 302.955 317.975 303.531 317.943 304.107C317.911 304.683 317.863 305.163 317.799 305.547H298.791V301.179H314.199L310.311 302.667C310.311 300.747 309.959 299.275 309.255 298.251C308.583 297.227 307.527 296.715 306.087 296.715C305.063 296.715 304.183 296.955 303.447 297.435C302.743 297.915 302.199 298.667 301.815 299.691C301.463 300.715 301.287 302.027 301.287 303.627C301.287 305.195 301.495 306.475 301.911 307.467C302.327 308.427 302.919 309.131 303.687 309.579C304.455 309.995 305.383 310.203 306.471 310.203C307.687 310.203 308.647 309.963 309.351 309.483C310.087 309.003 310.631 308.331 310.983 307.467L317.511 309.627C317.063 311.003 316.279 312.171 315.159 313.131C314.071 314.059 312.759 314.763 311.223 315.243C309.719 315.723 308.135 315.963 306.471 315.963Z" fill="#555555"/>
</svg>
